<svg height="1278" width="720" xmlns="http://www.w3.org/2000/svg">
<rect height="1278" fill="#555" width="720"></rect>
<text fill="#7f7" font-family="Courier New" font-size="12" xml:space="preserve">
<tspan x="10" y="26">3 megabytes installed</tspan>
<tspan x="10" y="42"></tspan>
<tspan x="10" y="58">node_modules</tspan>
<tspan x="10" y="74">└─┬ bible@2.0.1 </tspan>
<tspan x="10" y="90">  ├── abs@1.3.8 </tspan>
<tspan x="10" y="106">  ├─┬ bible.js@3.0.0 </tspan>
<tspan x="10" y="122">  │ ├── bible-reference-parser@2.0.0 </tspan>
<tspan x="10" y="138">  │ ├── cb-buffer@1.0.2 </tspan>
<tspan x="10" y="154">  │ ├─┬ git-tools@0.1.4 </tspan>
<tspan x="10" y="170">  │ │ └── spawnback@1.0.0 </tspan>
<tspan x="10" y="186">  │ └─┬ levenshtein-array@2.2.7 </tspan>
<tspan x="10" y="202">  │   └── levdist@2.2.7 </tspan>
<tspan x="10" y="218">  ├─┬ bug-killer@4.4.4 </tspan>
<tspan x="10" y="234">  │ ├── ansi-parser@3.2.7 </tspan>
<tspan x="10" y="250">  │ ├─┬ couleurs@6.0.8 </tspan>
<tspan x="10" y="266">  │ │ ├─┬ ansy@1.0.9 </tspan>
<tspan x="10" y="282">  │ │ │ ├── ansi-styles@3.0.0 </tspan>
<tspan x="10" y="298">  │ │ │ ├── custom-return@1.0.6 </tspan>
<tspan x="10" y="314">  │ │ │ └─┬ supports-color@3.2.3 </tspan>
<tspan x="10" y="330">  │ │ │   └── has-flag@1.0.0 </tspan>
<tspan x="10" y="346">  │ │ ├─┬ color-convert@1.9.0 </tspan>
<tspan x="10" y="362">  │ │ │ └── color-name@1.1.2 </tspan>
<tspan x="10" y="378">  │ │ └── iterate-object@1.3.2 </tspan>
<tspan x="10" y="394">  │ ├─┬ daty@1.0.11 </tspan>
<tspan x="10" y="410">  │ │ ├── add-subtract-date@1.0.9 </tspan>
<tspan x="10" y="426">  │ │ ├─┬ class-methods@1.0.6 </tspan>
<tspan x="10" y="442">  │ │ │ ├── exclude-arr@1.0.6 </tspan>
<tspan x="10" y="458">  │ │ │ └── static-methods@1.0.8 </tspan>
<tspan x="10" y="474">  │ │ ├── date-unit-ms@1.1.8 </tspan>
<tspan x="10" y="490">  │ │ ├── diff-dates@1.0.7 </tspan>
<tspan x="10" y="506">  │ │ └─┬ formatoid@1.0.7 </tspan>
<tspan x="10" y="522">  │ │   ├── days@1.1.0 </tspan>
<tspan x="10" y="538">  │ │   ├── fillo@1.0.8 </tspan>
<tspan x="10" y="554">  │ │   ├── months@1.0.1 </tspan>
<tspan x="10" y="570">  │ │   └─┬ parse-it@1.0.7 </tspan>
<tspan x="10" y="586">  │ │     └── regex-escape@3.4.6 </tspan>
<tspan x="10" y="602">  │ ├── deffy@2.2.2 </tspan>
<tspan x="10" y="618">  │ └─┬ typpy@2.3.8 </tspan>
<tspan x="10" y="634">  │   └─┬ function.name@1.0.8 </tspan>
<tspan x="10" y="650">  │     └── noop6@1.0.6 </tspan>
<tspan x="10" y="666">  ├─┬ couleurs@5.2.1 </tspan>
<tspan x="10" y="682">  │ ├── flat-colors@3.0.0 </tspan>
<tspan x="10" y="698">  │ ├── typpy@2.0.0 </tspan>
<tspan x="10" y="714">  │ └── x256@0.0.2 </tspan>
<tspan x="10" y="730">  ├── is-there@4.4.2 </tspan>
<tspan x="10" y="746">  ├─┬ le-table@4.2.2 </tspan>
<tspan x="10" y="762">  │ ├─┬ cli-box@5.0.0 </tspan>
<tspan x="10" y="778">  │ │ ├── ansi-parser@3.0.0 </tspan>
<tspan x="10" y="794">  │ │ └─┬ ul@5.0.0 </tspan>
<tspan x="10" y="810">  │ │   ├── deffy@2.0.0 </tspan>
<tspan x="10" y="826">  │ │   └── typpy@2.0.0 </tspan>
<tspan x="10" y="842">  │ ├─┬ overlap@2.0.0 </tspan>
<tspan x="10" y="858">  │ │ ├── ansi-parser@3.0.0 </tspan>
<tspan x="10" y="874">  │ │ └─┬ couleurs@5.0.0 </tspan>
<tspan x="10" y="890">  │ │   └── typpy@2.0.0 </tspan>
<tspan x="10" y="906">  │ └─┬ ul@5.0.0 </tspan>
<tspan x="10" y="922">  │   ├── deffy@2.0.0 </tspan>
<tspan x="10" y="938">  │   └── typpy@2.0.0 </tspan>
<tspan x="10" y="954">  ├── r-json@1.2.7 </tspan>
<tspan x="10" y="970">  ├── regex-parser@2.2.7 </tspan>
<tspan x="10" y="986">  ├── ul@5.2.11 </tspan>
<tspan x="10" y="1002">  ├── w-json@1.3.7 </tspan>
<tspan x="10" y="1018">  └─┬ yargs@3.32.0 </tspan>
<tspan x="10" y="1034">    ├── camelcase@2.1.1 </tspan>
<tspan x="10" y="1050">    ├─┬ cliui@3.2.0 </tspan>
<tspan x="10" y="1066">    │ ├─┬ strip-ansi@3.0.1 </tspan>
<tspan x="10" y="1082">    │ │ └── ansi-regex@2.1.1 </tspan>
<tspan x="10" y="1098">    │ └── wrap-ansi@2.1.0 </tspan>
<tspan x="10" y="1114">    ├── decamelize@1.2.0 </tspan>
<tspan x="10" y="1130">    ├─┬ os-locale@1.4.0 </tspan>
<tspan x="10" y="1146">    │ └─┬ lcid@1.0.0 </tspan>
<tspan x="10" y="1162">    │   └── invert-kv@1.0.0 </tspan>
<tspan x="10" y="1178">    ├─┬ string-width@1.0.2 </tspan>
<tspan x="10" y="1194">    │ ├── code-point-at@1.1.0 </tspan>
<tspan x="10" y="1210">    │ └─┬ is-fullwidth-code-point@1.0.0 </tspan>
<tspan x="10" y="1226">    │   └── number-is-nan@1.0.1 </tspan>
<tspan x="10" y="1242">    ├── window-size@0.1.4 </tspan>
<tspan x="10" y="1258">    └── y18n@3.2.1</tspan>
</text>
</svg>
